<svg id="Layer_1" fill="#343643" data-name="Layer 1" xmlns="http://www.w3.org/2000/svg" xmlns:xlink="http://www.w3.org/1999/xlink" viewBox="0 0 55.96 55.9"><defs><style>.cls-1{fill:none;}.cls-2{clip-path:url(#clip-path);}</style><clipPath id="clip-path" transform="translate(4.98 4.88)"><path class="cls-1" d="M45,44.8l-.2.2c-1.5,1.5-2.7,1.1-3.8,0L23,27.1,5.1,45c-1.2,1.2-2.3,1.5-3.8,0L1,44.8C-.5,43.3-.1,42.1,1,41L19,23,1.1,5.1C-.1,3.9-.4,2.8,1.1,1.3l.2-.2C2.8-.4,4,0,5.1,1.1L23,19,40.9,1.1c1.2-1.2,2.4-1.4,3.8,0l.2.2c1.5,1.5,1.1,2.7,0,3.8L27,23,45,41C46.2,42.2,46.4,43.4,45,44.8Z"/></clipPath></defs><title>clouse</title><g class="cls-2"><rect width="55.96" height="55.9"/></g></svg>