<svg id="Layer_1" fill="#343643" data-name="Layer 1" xmlns="http://www.w3.org/2000/svg" xmlns:xlink="http://www.w3.org/1999/xlink" viewBox="0 0 28 28"><defs><style>.cls-1{fill:none;}.cls-2{clip-path:url(#clip-path);}</style><clipPath id="clip-path" transform="translate(5 5)"><path class="cls-1" d="M14.3,14.36H14a2.56,2.56,0,0,1-2-1.13,2.93,2.93,0,0,1-.45-1.06h5.22a2.75,2.75,0,0,1-.44,1.06,2.6,2.6,0,0,1-2,1.14ZM14.13,2.6h0l2.54,8.22a.83.83,0,0,1,0,.15H11.56a.83.83,0,0,1,0-.15ZM9,4.2a1,1,0,1,1,1-1A1,1,0,0,1,9,4.2ZM6.44,13.4H1.29a1.24,1.24,0,0,1,0-.16L3.86,5,6.4,13.24A1.24,1.24,0,0,1,6.44,13.4ZM4,16.8H3.7a2.63,2.63,0,0,1-2-1.13,2.79,2.79,0,0,1-.44-1.07H6.47A2.75,2.75,0,0,1,6,15.66,2.61,2.61,0,0,1,4,16.8Zm13.79-6.34L14.73.44a.62.62,0,0,0-1.19,0L13.19,1.6l-2.27.53a2.2,2.2,0,0,0-4.12,1l-2.12.5-.22-.74a.62.62,0,0,0-1.19,0l-3.09,10a4,4,0,0,0,.54,3.46A3.78,3.78,0,0,0,3.63,18H4.1A3.8,3.8,0,0,0,7,16.35a4,4,0,0,0,.54-3.45L5,4.75l2-.48a2.2,2.2,0,0,0,4.12-1l1.58-.37-2.33,7.53A4,4,0,0,0,11,13.92a3.8,3.8,0,0,0,2.91,1.65h.47a3.8,3.8,0,0,0,2.91-1.65A4,4,0,0,0,17.82,10.46Z"/></clipPath></defs><title>compare</title><g class="cls-2"><rect width="28" height="28"/></g></svg>