<?xml version="1.0" encoding="utf-8"?>
<!-- Generator: Adobe Illustrator 22.1.0, SVG Export Plug-In . SVG Version: 6.00 Build 0)  -->
<svg version="1.1" id="Layer_1" xmlns="http://www.w3.org/2000/svg" xmlns:xlink="http://www.w3.org/1999/xlink" x="0px" y="0px"
	 viewBox="0 0 59.2 55.5" style="enable-background:new 0 0 59.2 55.5;" xml:space="preserve">
<style type="text/css">
	.st0{clip-path:url(#SVGID_2_);}
	.st1{fill:#A1A4AC;}
</style>
<title>delivery</title>
<g>
	<defs>
		<path id="SVGID_1_" d="M22.6,51.9c-2.3,0-4.2-1.9-4.2-4.2c0-2.3,1.9-4.2,4.2-4.2s4.2,1.9,4.2,4.2c0,0,0,0,0,0
			C26.8,50,24.9,51.9,22.6,51.9z M59.2,39.8l-0.9-3.5L29.5,44c-1.4-2.5-4-4.1-6.9-4.1h-0.2l-8.8-33L1.8,0L0,3.1l10.6,6.1l8.4,31.6
			c-3.8,2-5.2,6.8-3.2,10.6c2,3.8,6.8,5.2,10.6,3.2c2.5-1.4,4.1-4,4.1-6.9c0-0.1,0-0.1,0-0.2L59.2,39.8z M33.5,10.4l1.9,7.2l3.5-0.9
			L37,9.5L46.2,7l5.9,22.2L30,35.1l-5.9-22.2L33.5,10.4z M56.5,31.8L48.8,2.6l-29.2,7.8l7.8,29.1L56.5,31.8z"/>
	</defs>
	<clipPath id="SVGID_2_">
		<use xlink:href="#SVGID_1_"  style="overflow:visible;"/>
	</clipPath>
	<g class="st0">
		<rect x="-5" y="-5" class="st1" width="69.2" height="65.5"/>
	</g>
</g>
</svg>
