<svg id="Layer_1" data-name="Layer 1" xmlns="http://www.w3.org/2000/svg" xmlns:xlink="http://www.w3.org/1999/xlink" viewBox="0 0 69.24 65.49"><defs><style>.cls-1{fill:none;}.cls-2{clip-path:url(#clip-path);}</style><clipPath id="clip-path" transform="translate(4.62 4.75)"><path class="cls-1" d="M23,52.13a4.2,4.2,0,1,1,4.19-4.19A4.2,4.2,0,0,1,23,52.13Zm36.6-12.05-.93-3.5-28.8,7.66A7.79,7.79,0,0,0,23,40.13h-.21L14,7.12,2.19.25.38,3.38,10.93,9.5l8.39,31.56a7.81,7.81,0,1,0,11.51,6.88c0-.07,0-.14,0-.2ZM33.86,10.65l1.91,7.16,3.49-.93-1.9-7.16,9.25-2.46L52.5,29.42,30.34,35.31,24.45,13.15ZM56.92,32,49.17,2.84,20,10.59l7.75,29.15Z"/></clipPath></defs><title>delivery</title><g class="cls-2"><rect width="69.24" height="65.49"/></g></svg>