<svg id="Layer_1" data-name="Layer 1" fill="#343643" xmlns="http://www.w3.org/2000/svg" viewBox="0 0 124.75 11.09"><defs><style>.cls-1{fill-rule:evenodd;}</style></defs><title>logoF</title><path class="cls-1" d="M116.75,11.09h8V10h-6.83V1.41h6.83V.29h-8Zm7.83-5.66V6.55h-5V5.43Zm-11.66,5.66h1.25l-2.25-4.54a2.22,2.22,0,0,0,1-.26,3.43,3.43,0,0,0,.83-.68,3.36,3.36,0,0,0,.58-1,2.53,2.53,0,0,0,.17-1.11,3.48,3.48,0,0,0-.25-1.29,3,3,0,0,0-.5-1,3.43,3.43,0,0,0-.83-.68,2.22,2.22,0,0,0-1-.26h-6.67v10.8h1.17V1.41h5.25a1.43,1.43,0,0,1,.66.17,2.43,2.43,0,0,1,.5.51,1.79,1.79,0,0,1,.34.69,2.22,2.22,0,0,1,.08.68,2.31,2.31,0,0,1-.08.69,5.5,5.5,0,0,1-.25.6,3,3,0,0,1-.5.51,1.5,1.5,0,0,1-.67.17h-1.58ZM92.33,5.69a6.08,6.08,0,0,0,.42,2.14,4.83,4.83,0,0,0,1.17,1.72,5.15,5.15,0,0,0,1.66,1.11,5.27,5.27,0,0,0,4.17,0,4.7,4.7,0,0,0,1.67-1.11,6.12,6.12,0,0,0,1.16-1.72A6.08,6.08,0,0,0,103,5.69V.29h-1.17V6.21a4.23,4.23,0,0,1-.5,1.45,6.42,6.42,0,0,1-.91,1.2,3.07,3.07,0,0,1-1.25.77,4.46,4.46,0,0,1-3,0,3,3,0,0,1-1.25-.77A6.06,6.06,0,0,1,94,7.66a4.23,4.23,0,0,1-.5-1.45V.29H92.33ZM81,.29V1.41h3.92v9.68h1.16V1.41H90V.29ZM68.08,5.69a6.08,6.08,0,0,0,.42,2.14,4.83,4.83,0,0,0,1.17,1.72,5.15,5.15,0,0,0,1.66,1.11,5.27,5.27,0,0,0,4.17,0,4.7,4.7,0,0,0,1.67-1.11,6.12,6.12,0,0,0,1.16-1.72,6.08,6.08,0,0,0,.42-2.14V.29H77.58V6.21a4.23,4.23,0,0,1-.5,1.45,6.42,6.42,0,0,1-.91,1.2,3.07,3.07,0,0,1-1.25.77,4.46,4.46,0,0,1-3,0,3,3,0,0,1-1.25-.77,6.06,6.06,0,0,1-.92-1.2,4.23,4.23,0,0,1-.5-1.45V.29H68.08Zm-22.75,5.4h1.25L44.33,6.55a2.16,2.16,0,0,0,1-.26,3.3,3.3,0,0,0,.84-.68,3.61,3.61,0,0,0,.58-1,2.53,2.53,0,0,0,.17-1.11,3.69,3.69,0,0,0-.25-1.29,4.32,4.32,0,0,0-.59-1,3.43,3.43,0,0,0-.83-.68,2.19,2.19,0,0,0-1-.26H37.58v10.8h1.17V1.41H44a1.5,1.5,0,0,1,.67.17,3,3,0,0,1,.5.51,1.77,1.77,0,0,1,.33.69.92.92,0,0,1,.17.68,2.07,2.07,0,0,1-.09.69,3.19,3.19,0,0,1-.25.6,2.65,2.65,0,0,1-.5.51,1.43,1.43,0,0,1-.66.17H42.58ZM24.75,5.69a6.08,6.08,0,0,0,.42,2.14,4.8,4.8,0,0,0,1.16,1.72A5.18,5.18,0,0,0,28,10.66a5.27,5.27,0,0,0,4.17,0,4.65,4.65,0,0,0,1.66-1.11A6.15,6.15,0,0,0,35,7.83a6.08,6.08,0,0,0,.42-2.14V.29H34.25V6.21a4.23,4.23,0,0,1-.5,1.45,6.06,6.06,0,0,1-.92,1.2,3,3,0,0,1-1.25.77,4.46,4.46,0,0,1-3,0,3.07,3.07,0,0,1-1.25-.77,6.42,6.42,0,0,1-.91-1.2,4.23,4.23,0,0,1-.5-1.45V.29H24.75Zm-11.67,0a3.59,3.59,0,0,1,.34-1.63,5.11,5.11,0,0,1,.91-1.37,4.86,4.86,0,0,1,1.34-.94,3.58,3.58,0,0,1,1.66-.34,3.28,3.28,0,0,1,1.59.34,4.81,4.81,0,0,1,1.33.94,4.92,4.92,0,0,1,.92,1.37,3.58,3.58,0,0,1,.33,1.63,4.82,4.82,0,0,1-.17,1.2A2.7,2.7,0,0,1,20.83,8a9.66,9.66,0,0,1-.75.94,6.1,6.1,0,0,1-1,.68l.59.95a6.23,6.23,0,0,0,1.16-.86,5.78,5.78,0,0,0,.92-1.11,6.36,6.36,0,0,0,.58-1.38,4.82,4.82,0,0,0,.25-1.54,6.08,6.08,0,0,0-.41-2.14A4.83,4.83,0,0,0,21,1.83,6.19,6.19,0,0,0,19.33.63a5.36,5.36,0,0,0-4.16,0,4.1,4.1,0,0,0-1.67,1.2,6.37,6.37,0,0,0-1.17,1.72,6.08,6.08,0,0,0-.41,2.14,9.93,9.93,0,0,0,.16,1.54,6.91,6.91,0,0,0,.59,1.38,4,4,0,0,0,.91,1.11,6.3,6.3,0,0,0,1.17.86l.75-.95a6.56,6.56,0,0,1-1-.68A2.79,2.79,0,0,1,13.75,8a4.39,4.39,0,0,1-.5-1.12A6.2,6.2,0,0,1,13.08,5.69Zm-8.5,5.4H5.75V7.23L10.33.38H8.92L5.17,6,1.42.29H0L4.58,7.23Z"/><path class="cls-1" d="M54.88,10.71V9.34A2.29,2.29,0,0,1,56.21,7a3.23,3.23,0,0,1,1.33-.34h5.17V4H57.46A4.8,4.8,0,0,0,53.79,5.4,5.46,5.46,0,0,0,52.46,8c0,.26-.08.43-.08.69s-.09.43-.09.68v1.37Zm7.75-8V0H53.54L52.21,2.66Z"/></svg>