<svg id="Layer_1" data-name="Layer 1" xmlns="http://www.w3.org/2000/svg" xmlns:xlink="http://www.w3.org/1999/xlink" viewBox="0 0 226 50"><defs><style>.cls-1{fill:none;}.cls-2{clip-path:url(#clip-path);}.cls-3{fill:#343643;}.cls-4{clip-path:url(#clip-path-2);}.cls-5{fill:#869f3b;}</style><clipPath id="clip-path" transform="translate(5 5)"><path class="cls-1" d="M77.82,26h8.53V23.81H80.27V21.46h5.28v-2.2H80.27V17h6V14.8H77.82ZM60.7,26h2.41V18.74l3.12,4.73h.07l3.15-4.78V26H71.9V14.8H69.24L66.3,19.54,63.35,14.8H60.7Zm-8.51,0h2.47V14.8H52.19ZM39.74,20.24V17h2.44a2.25,2.25,0,0,1,1.43.41,1.43,1.43,0,0,1,.51,1.19,1.5,1.5,0,0,1-.5,1.18,2,2,0,0,1-1.39.44ZM37.27,26h2.47V22.42h1.9L44.07,26H47l-2.73-4a3.4,3.4,0,0,0,2.4-3.47,3.49,3.49,0,0,0-1-2.59,4.43,4.43,0,0,0-3.27-1.14H37.27ZM25.81,20.45V17h1.9a2.24,2.24,0,0,1,1.47.44,1.54,1.54,0,0,1,.53,1.26A1.62,1.62,0,0,1,29.19,20a2,2,0,0,1-1.43.48ZM23.34,26h2.47V22.64h1.87a5,5,0,0,0,3.25-1,3.54,3.54,0,0,0,1.28-2.91,3.72,3.72,0,0,0-1.15-2.83,4.46,4.46,0,0,0-3.14-1.07H23.34ZM0,0H216V40H0ZM111,37H213V3H111Z"/></clipPath><clipPath id="clip-path-2" transform="translate(5 5)"><path class="cls-1" d="M193.58,26V14.8H202V17h-6v2.27h5.28v2.2H196v2.35h6.08V26Zm-8.2.19a5.54,5.54,0,0,1-4.11-1.67,5.66,5.66,0,0,1-1.64-4.12,5.69,5.69,0,0,1,5.84-5.79,5.75,5.75,0,0,1,2.45.47,7.1,7.1,0,0,1,1.89,1.35l-1.47,1.7a5.2,5.2,0,0,0-1.36-.95,3.52,3.52,0,0,0-1.52-.3,3,3,0,0,0-2.33,1,3.54,3.54,0,0,0-.92,2.5,3.6,3.6,0,0,0,.92,2.5,3,3,0,0,0,2.33,1A3.57,3.57,0,0,0,187,23.6a5.83,5.83,0,0,0,1.39-1L190,24.29a6,6,0,0,1-2,1.44A6.52,6.52,0,0,1,185.38,26.19ZM173.22,26V14.8h2.47V26ZM163,26.08,158.51,14.8h2.72l2.93,7.89,2.93-7.89h2.65l-4.52,11.28Zm-14-5.84h2.49a2.06,2.06,0,0,0,1.4-.44,1.5,1.5,0,0,0,.49-1.18,1.43,1.43,0,0,0-.51-1.19A2.24,2.24,0,0,0,151.5,17h-2.45ZM146.58,26V14.8h5.12A4.43,4.43,0,0,1,155,15.94a3.49,3.49,0,0,1,1,2.59,3.4,3.4,0,0,1-2.4,3.47l2.73,4h-2.88L151,22.42h-1.9V26Zm-12.36,0V14.8h8.45V17h-6v2.27H142v2.2h-5.28v2.35h6.08V26Zm-7.89.16a6.88,6.88,0,0,1-4.75-1.79L123,22.62A5.24,5.24,0,0,0,126.38,24a2.12,2.12,0,0,0,1.18-.28.91.91,0,0,0,.43-.8.9.9,0,0,0-.45-.78,6.85,6.85,0,0,0-1.8-.65,14.67,14.67,0,0,1-1.56-.47,4.75,4.75,0,0,1-1.12-.62,2.23,2.23,0,0,1-.79-1A3.69,3.69,0,0,1,122,18a3.05,3.05,0,0,1,1.1-2.45,4.2,4.2,0,0,1,2.82-.93,6.44,6.44,0,0,1,4.16,1.42l-1.28,1.86a5.15,5.15,0,0,0-2.91-1.1,1.71,1.71,0,0,0-1.06.28.86.86,0,0,0-.38.72.89.89,0,0,0,.47.82,9.37,9.37,0,0,0,2,.66,6.82,6.82,0,0,1,2.69,1.23,2.72,2.72,0,0,1,.86,2.16,3.11,3.11,0,0,1-1.13,2.55A4.57,4.57,0,0,1,126.33,26.16Z"/></clipPath></defs><title>logo</title><g class="cls-2"><rect class="cls-3" width="226" height="50"/></g><g class="cls-4"><rect class="cls-5" x="121.58" y="14.61" width="90.53" height="21.58"/></g></svg>