<?xml version="1.0" encoding="utf-8"?>
<!-- Generator: Adobe Illustrator 22.1.0, SVG Export Plug-In . SVG Version: 6.00 Build 0)  -->
<svg version="1.1" id="Layer_1" xmlns="http://www.w3.org/2000/svg" xmlns:xlink="http://www.w3.org/1999/xlink" x="0px" y="0px"
	 viewBox="0 0 92.9 96" style="enable-background:new 0 0 92.9 96;" xml:space="preserve">
<style type="text/css">
	.st0{clip-path:url(#SVGID_2_);}
	.st1{fill:#A1A4AC;}
</style>
<title>payment</title>
<g>
	<defs>
		<path id="SVGID_1_" d="M87.9,70.9c0,0.3-0.2,0.6-0.6,0.6c0,0,0,0,0,0H66.7c-3.8,0.1-7.1-2.8-7.4-6.6c-0.3-3.9,2.7-7.3,6.6-7.5
			c0.2,0,0.3,0,0.5,0h20.8c0.3,0,0.6,0.2,0.6,0.6c0,0,0,0,0,0L87.9,70.9z M79,87.6c0,1.9-1.5,3.4-3.4,3.4H8.4C6.6,91,5,89.5,5,87.6
			V36.3c1.6,0.9,3.4,1.5,5.2,1.5h65.4c1.8,0,3.3,1.5,3.3,3.3v11.2H66.4c-3.3,0-6.5,1.4-8.8,3.8c-2.3,2.4-3.5,5.7-3.2,9.1
			c0.5,6.4,5.9,11.3,12.4,11.3H79V87.6z M10.2,22.3h3.7v10.4h-3.7c-2.9,0-5.2-2.3-5.2-5.2C5,24.7,7.3,22.3,10.2,22.3
			C10.2,22.3,10.2,22.3,10.2,22.3z M21,5h25.7v27.8H18.9V7.1C18.9,5.9,19.8,5,21,5z M58.5,7.1v25.7h-6.9V5h4.8
			C57.6,5,58.5,5.9,58.5,7.1C58.5,7.1,58.5,7.1,58.5,7.1z M67.2,22.3c1.8,0,3.3,1.5,3.3,3.3v7.1h-6.9V22.3H67.2z M92.9,70.9v-13
			c0-3.1-2.5-5.6-5.6-5.6l0,0H84V41.1c0-4.6-3.7-8.3-8.3-8.3h-0.2v-7.1c0-4.6-3.7-8.3-8.3-8.3h-3.6V7.1c0-3.9-3.2-7.1-7.1-7.1
			c0,0,0,0,0,0H21c-3.9,0-7.1,3.2-7.1,7.1v10.3h-3.7C4.6,17.3,0,21.9,0,27.6v60.1C0,92.2,3.8,96,8.4,96c0,0,0,0,0,0h67.1
			c4.6,0,8.4-3.8,8.4-8.4V76.5h3.3C90.4,76.4,92.8,74,92.9,70.9z"/>
	</defs>
	<clipPath id="SVGID_2_">
		<use xlink:href="#SVGID_1_"  style="overflow:visible;"/>
	</clipPath>
	<g class="st0">
		<rect x="-5" y="-5" class="st1" width="102.9" height="106"/>
	</g>
</g>
</svg>
