<svg id="Layer_1" data-name="Layer 1" xmlns="http://www.w3.org/2000/svg" xmlns:xlink="http://www.w3.org/1999/xlink" viewBox="0 0 102.86 106"><defs><style>.cls-1{fill:none;}.cls-2{clip-path:url(#clip-path);}</style><clipPath id="clip-path" transform="translate(4.43 5)"><path class="cls-1" d="M88.43,70.88a.58.58,0,0,1-.59.59H67.29a7.27,7.27,0,0,1-7.4-6.61A7.09,7.09,0,0,1,67,57.3H87.85a.58.58,0,0,1,.59.59Zm-8.9,16.73A3.39,3.39,0,0,1,76.14,91H9a3.39,3.39,0,0,1-3.39-3.39V36.32a10.12,10.12,0,0,0,5.22,1.45H76.22a3.31,3.31,0,0,1,3.31,3.31V52.3H67a12.13,12.13,0,0,0-8.82,3.82,12,12,0,0,0-3.24,9.06A12.27,12.27,0,0,0,67.29,76.46H79.53ZM10.79,22.33h3.68V32.77H10.79a5.22,5.22,0,1,1,0-10.44ZM21.55,5H47.22V32.77H19.47V7.08A2.08,2.08,0,0,1,21.55,5ZM59.1,7.08V32.77H52.22V5H57a2.08,2.08,0,0,1,2.1,2.08Zm8.64,15.25A3.31,3.31,0,0,1,71,25.64v7.13H64.1V22.33ZM93.43,70.88v-13a5.59,5.59,0,0,0-5.59-5.59H84.53V41.08a8.32,8.32,0,0,0-8.31-8.31H76V25.64a8.32,8.32,0,0,0-8.31-8.31H64.1V7.08A7.08,7.08,0,0,0,57,0H21.55a7.09,7.09,0,0,0-7.08,7.08V17.33H10.79A10.24,10.24,0,0,0,.57,27.55V87.61A8.4,8.4,0,0,0,9,96H76.14a8.41,8.41,0,0,0,8.39-8.39V76.46h3.32A5.6,5.6,0,0,0,93.43,70.88Z"/></clipPath></defs><title>payment</title><g class="cls-2"><rect width="102.86" height="106"/></g></svg>