<svg id="Layer_1" fill="#a1a4ac" data-name="Layer 1" xmlns="http://www.w3.org/2000/svg" xmlns:xlink="http://www.w3.org/1999/xlink" viewBox="0 0 17.65 17.65"><defs><style>.cls-1{fill:none;}.cls-2{clip-path:url(#clip-path);}</style><clipPath id="clip-path" transform="translate(5 5)"><path class="cls-1" d="M7.65,3.42A.43.43,0,0,0,7.22,3H5.09a.43.43,0,0,1-.43-.43V.43A.43.43,0,0,0,4.23,0H3.42A.43.43,0,0,0,3,.43V2.56A.43.43,0,0,1,2.56,3H.43A.43.43,0,0,0,0,3.42v.81a.43.43,0,0,0,.43.43H2.56A.43.43,0,0,1,3,5.09V7.22a.43.43,0,0,0,.43.43h.81a.44.44,0,0,0,.43-.43V5.09a.43.43,0,0,1,.43-.43H7.22a.44.44,0,0,0,.43-.43Z"/></clipPath></defs><g class="cls-2"><rect width="17.65" height="17.65"/></g></svg>